<?xml version="1.0" encoding="UTF-8"?>
<svg id="a"
  xmlns="http://www.w3.org/2000/svg" width="512" height="100.87" viewBox="0 0 512 100.87">
  <defs>
    <style>
      .b {
        fill: #fff;
      }
    </style>
  </defs>
  <path class="b" d="m14.54,6.3h20.49l-14.54,93H0L14.54,6.3Z"/>
  <path class="b" d="m46.63,35.46h19.7l-1.6,10.25h.26c6.1-9.54,15.81-13.73,26.71-11.17l-2.81,18c-31.77-9.58-28.16,26.87-32.54,46.76h-19.7l9.98-63.84Z"/>
  <path class="b" d="m101.92,15.37c1.15-13.6,24.96-16.04,22.86,0-1.15,13.59-24.96,16.04-22.86,0Zm-1.57,20.1h19.7l-9.98,63.84h-19.7l9.98-63.84Z"/>
  <path class="b" d="m167.43,54.24c-3.98-9.07-25.1-5.25-16.75,3.35,8.32,3.88,21.63,2.88,26.4,12.61,9.23,29.54-39.04,40.24-55.52,22l14.03-13.27c3.38,9.88,29.57,8.72,20.64-1.38-8.16-4.24-21.59-2.81-26.43-12.48-9.1-27.74,35.25-41.58,51.58-22.79l-13.95,11.95Z"/>
  <path class="b" d="m217.28,24.43h-26.53l2.84-18.13h73.56l-2.84,18.13h-26.54l-11.71,74.87h-20.49l11.71-74.87Z"/>
  <path class="b" d="m263.1,67.38c4.03-40.67,76.91-48.02,70.93,0-4.03,40.67-76.92,48.02-70.93,0Zm19.71,0c-3.93,23.14,30.42,19.74,31.52,0,3.93-23.14-30.42-19.74-31.52,0Z"/>
  <path class="b" d="m343.23,67.38c4.03-40.67,76.91-48.02,70.93,0-4.03,40.67-76.92,48.02-70.93,0Zm19.71,0c-3.93,23.14,30.42,19.74,31.52,0,3.93-23.14-30.42-19.74-31.52,0Z"/>
  <path class="b" d="m436.52,0h19.7l-15.53,99.3h-19.7L436.52,0Z"/>
  <path class="b" d="m498.05,54.24c-3.98-9.07-25.1-5.25-16.75,3.35,8.32,3.88,21.63,2.88,26.4,12.61,9.23,29.54-39.04,40.24-55.52,22l14.03-13.27c3.38,9.88,29.57,8.72,20.64-1.38-8.16-4.24-21.59-2.81-26.43-12.48-9.1-27.74,35.25-41.58,51.58-22.79l-13.95,11.95Z"/>
</svg>